<?xml version="1.0" encoding="UTF-8"?>
<svg version="1.1" xmlns="http://www.w3.org/2000/svg" width="48" height="48">
<path d="M0 0 C5.11662253 3.97042573 7.63140603 7.27105756 8.50390625 13.6796875 C8.86382927 20.8015685 8.3502038 26.00305944 3.8203125 31.66015625 C-0.62854396 36.15844445 -4.05386402 37.64657786 -10.4375 37.8125 C-16.37294459 37.56044687 -21.06248281 37.05683303 -25.6875 33.0625 C-26.43 32.19625 -27.1725 31.33 -27.9375 30.4375 C-28.515 29.7775 -29.0925 29.1175 -29.6875 28.4375 C-33.13114498 22.92766802 -32.39469724 15.88973974 -31.25 9.75 C-29.73882597 5.93608459 -28.03394737 4.09159775 -24.9375 1.4375 C-23.9475 0.57125 -23.9475 0.57125 -22.9375 -0.3125 C-16.38365234 -4.40865479 -6.39031813 -3.9715035 0 0 Z " fill="#D7F7FD" transform="translate(35.9375,6.5625)"/>
<path d="M0 0 C7.26223116 -0.73301025 12.24573731 -0.30225492 18.1171875 4.25390625 C23.3707558 9.12599137 24.27052074 12.86083594 24.625 19.875 C24.41323243 26.73919011 22.83524534 31.11102971 18 36 C13.21257651 40.37060801 8.44818127 40.3775896 2.16015625 40.140625 C1.44730469 40.09421875 0.73445313 40.0478125 0 40 C0.33 39.01 0.66 38.02 1 37 C1.64066406 36.92523438 2.28132813 36.85046875 2.94140625 36.7734375 C9.47344647 35.78048951 13.6551256 34.06690893 18 29 C20.62255682 24.78110425 20.69212562 19.8363346 20 15 C17.77581064 10.63399866 15.1882919 7.54939507 11 5 C7.69581296 4.10670212 4.38444145 3.49945155 1 3 C0.67 2.01 0.34 1.02 0 0 Z " fill="#14BDE4" transform="translate(20,4)"/>
<path d="M0 0 C5.27434536 -0.31646072 8.55892743 0.07078192 13 3 C19.90853335 9.97309908 19.90853335 9.97309908 20.09765625 14.1640625 C20.08605469 14.97617187 20.07445313 15.78828125 20.0625 16.625 C20.05347656 17.44226563 20.04445313 18.25953125 20.03515625 19.1015625 C20.02355469 19.72804688 20.01195313 20.35453125 20 21 C19.13375 19.824375 19.13375 19.824375 18.25 18.625 C16.12013073 16.14015252 14.88569129 15.29734861 12 14 C10.98679687 15.10021484 10.98679687 15.10021484 9.953125 16.22265625 C8.61507813 17.62837891 8.61507813 17.62837891 7.25 19.0625 C5.92742188 20.47208984 5.92742188 20.47208984 4.578125 21.91015625 C2 24 2 24 -0.1875 23.92578125 C-2.67121303 22.65716058 -4.23198008 21.14688133 -6 19 C-6 18.01 -6 17.02 -6 16 C-3.03824877 16.61277612 -1.61941217 17.25372522 1 19 C5.455 14.545 5.455 14.545 10 10 C8.72125 8.72125 7.4425 7.4425 6.125 6.125 C4.08333333 4.08333333 2.04166667 2.04166667 0 0 Z " fill="#92E9FD" transform="translate(21,7)"/>
<path d="M0 0 C0.99 0.33 1.98 0.66 3 1 C1.53374144 4.34820898 -0.33658447 6.69266359 -2.875 9.3125 C-3.55304687 10.03050781 -4.23109375 10.74851562 -4.9296875 11.48828125 C-7 13 -7 13 -9.1171875 12.84765625 C-11.7052527 11.68248997 -13.20451015 10.18023768 -15 8 C-15 7.01 -15 6.02 -15 5 C-12.03824877 5.61277612 -10.61941217 6.25372522 -8 8 C-5.36 5.36 -2.72 2.72 0 0 Z " fill="#2EC6E7" transform="translate(30,18)"/>
<path d="M0 0 C5.99836014 0.9793241 8.79339921 3.19805988 12.62109375 7.890625 C14.36286019 10.55508358 14.92072055 12.82882208 15 16 C14.28457031 15.28328125 13.56914063 14.5665625 12.83203125 13.828125 C11.00274189 11.99819039 9.16594499 10.17690338 7.32421875 8.359375 C6.45410156 7.49828125 5.58398438 6.6371875 4.6875 5.75 C3.80449219 4.87859375 2.92148437 4.0071875 2.01171875 3.109375 C0 1 0 1 0 0 Z " fill="#79DFFC" transform="translate(26,7)"/>
<path d="M0 0 C2.97 0.495 2.97 0.495 6 1 C6.33 2.32 6.66 3.64 7 5 C4.625 4.75 4.625 4.75 2 4 C0.6875 1.9375 0.6875 1.9375 0 0 Z " fill="#17BFE4" transform="translate(11,38)"/>
<path d="M0 0 C1.32 0.33 2.64 0.66 4 1 C4.33 2.98 4.66 4.96 5 7 C3.0625 6.3125 3.0625 6.3125 1 5 C0.25 2.375 0.25 2.375 0 0 Z " fill="#16BEE3" transform="translate(5,30)"/>
<path d="M0 0 C0.66 0 1.32 0 2 0 C1.67 1.98 1.34 3.96 1 6 C-0.32 6.33 -1.64 6.66 -3 7 C-2.25 2.25 -2.25 2.25 0 0 Z " fill="#16BEE3" transform="translate(8,11)"/>
<path d="M0 0 C-0.33 1.32 -0.66 2.64 -1 4 C-2.98 4.33 -4.96 4.66 -7 5 C-5.22678182 1.07358831 -4.52021524 0 0 0 Z " fill="#15BEE4" transform="translate(18,5)"/>
<path d="M0 0 C0.99 0.33 1.98 0.66 3 1 C3 2.98 3 4.96 3 7 C2.01 7.33 1.02 7.66 0 8 C0 5.36 0 2.72 0 0 Z " fill="#18BFE3" transform="translate(4,20)"/>
</svg>
