<svg width="40" height="40" viewBox="0 0 40 40" fill="none" xmlns="http://www.w3.org/2000/svg">
<g id="Frame">
<g id="Group">
<path id="Vector" d="M20 0C12.242 0 5.9375 6.30469 5.9375 14.0625C5.9375 16.6875 6.66422 19.2423 8.04695 21.4454L19.0467 39.4465C19.2344 39.7512 19.5156 39.9388 19.8438 39.9856C20.289 40.0559 20.7814 39.8684 21.0391 39.4231L32.0704 21.2578C33.3827 19.1016 34.0625 16.5938 34.0625 14.0625C34.0625 6.30469 27.758 0 20 0ZM20 21.0938C16.0627 21.0938 12.9688 17.9062 12.9688 14.0625C12.9688 10.1952 16.1327 7.03125 20 7.03125C23.8673 7.03125 27.0312 10.1952 27.0312 14.0625C27.0312 17.8828 23.9843 21.0938 20 21.0938Z" fill="#FD003A"/>
<path id="Vector_2" d="M20 0V7.03125C23.8673 7.03125 27.0312 10.1952 27.0312 14.0625C27.0312 17.8828 23.9843 21.0938 20 21.0938V39.9993C20.3999 40.0086 20.8112 39.8169 21.0391 39.4231L32.0703 21.2578C33.3827 19.1016 34.0625 16.5938 34.0625 14.0625C34.0625 6.30469 27.758 0 20 0Z" fill="#E50027"/>
</g>
</g>
</svg>
