<svg data-bind="svgAttrs" version="1.1" id="Layer_1" xmlns="http://www.w3.org/2000/svg" x="0" y="0" viewBox="0 0 16 16" xml:space="preserve" xmlns:xlink="http://www.w3.org/1999/xlink"><path class="dxd-icon-fill" d="M6 4v8H4.3V5.5H3V4h3zm8 6.5V12H8v-1.2l3.1-2.9c.3-.3.5-.6.7-.8.1-.2.2-.4.2-.7 0-.3-.1-.6-.3-.7-.2-.2-.5-.3-.9-.3-.3 0-.7.1-.9.2-.5.2-.7.4-.9.6l-1.3-.8c.3-.5.7-.9 1.2-1.1.5-.3 1.2-.4 1.9-.4.6 0 1.1.1 1.5.3.4.2.8.5 1 .8.2.4.4.8.4 1.2 0 .4-.1.8-.3 1.2-.2.4-.5.8-1.1 1.3l-1.8 1.7H14z"></path></svg>