<svg data-bind="svgAttrs" version="1.1" id="Layer_1" xmlns="http://www.w3.org/2000/svg" x="0" y="0" viewBox="0 0 16 16" xml:space="preserve" xmlns:xlink="http://www.w3.org/1999/xlink"><path class="dxd-icon-fill" d="M6 6.1c.5.5.8 1.2.8 2.2V12H5.1v-.8c-.3.6-.9.9-1.9.9-.5 0-.9-.1-1.2-.3-.3-.2-.6-.4-.8-.7-.2-.3-.3-.6-.3-1 .1-.6.3-1.1.7-1.4.4-.3 1.1-.5 2-.5H5c0-.4-.1-.7-.4-1-.2-.2-.5-.3-1-.3-.3 0-.6 0-.9.1-.4.2-.6.3-.8.5l-.7-1.3c.4-.3.8-.5 1.2-.6.5-.1.9-.2 1.4-.2 1 0 1.7.2 2.2.7zm-1.5 4.5c.2-.1.4-.4.5-.7v-.6H3.8c-.7 0-1.1.3-1.1.8 0 .2.1.4.3.6.2.1.4.2.7.2.3-.1.6-.2.8-.3zm9-4.8c.5.3.8.7 1.1 1.2.3.5.4 1.1.4 1.7 0 .7-.1 1.3-.4 1.8-.3.5-.6.9-1.1 1.2-.5.3-1 .4-1.5.4-.8 0-1.5-.3-1.9-.8v.7H8.4V3h1.8v3.2c.4-.5 1.1-.8 1.8-.8.5 0 1 .1 1.5.4zm-.7 4.3c.3-.3.4-.8.4-1.3s-.1-1-.4-1.3c-.3-.3-.7-.5-1.1-.5s-.8.2-1.1.5c-.3.3-.4.8-.4 1.3s.1 1 .4 1.3c.3.3.7.5 1.1.5s.8-.2 1.1-.5z"></path></svg>