<svg width="428" height="926" viewBox="0 0 428 926" fill="none" xmlns="http://www.w3.org/2000/svg">
<path d="M-37.6738 684.295H107.295V758.442L177.59 794.397L107.295 931.832V1056.29H43.6348L8.19238 1125.59L-127.287 1056.29H-264.705V986.009L-323 956.192L-264.705 842.219V684.295H-183.931L-153.603 625L-37.6738 684.295ZM7.32227 1122.9L41.3887 1056.29H-122.896L7.32227 1122.9ZM-262.705 1054.29H-131.197L-262.705 987.031V1054.29ZM-262.705 842.7V984.785L-126.806 1054.29H42.4111L105.295 931.35V759.666L-38.1553 686.295H-182.707L-262.705 842.7ZM44.6582 1054.29H105.295V935.742L44.6582 1054.29ZM-320.309 955.322L-264.705 983.762V846.61L-320.309 955.322ZM107.295 927.439L174.898 795.268L107.295 760.689V927.439ZM-262.705 838.308L-184.953 686.295H-262.705V838.308ZM105.295 757.42V686.295H-33.7637L105.295 757.42ZM-181.684 684.295H-42.0664L-152.732 627.691L-181.684 684.295ZM465.5 -327C640.85 -327 783 -184.85 783 -9.5C783 165.85 640.85 308 465.5 308C460.122 308 454.776 307.865 449.464 307.601C408.782 336.804 358.9 354 305 354C168.033 354 57 242.967 57 106C57 23.3329 97.4477 -49.8865 159.632 -94.9492C196.945 -228.796 319.754 -327 465.5 -327ZM158.374 -90.2988C98.6533 -45.6183 60 25.677 60 106C60 241.31 169.69 351 305 351C356.903 351 405.036 334.859 444.654 307.325C279.021 296.59 148 158.847 148 -9.5C148 -37.4215 151.605 -64.5008 158.374 -90.2988Z" fill="#F8F9FF"/>
</svg>
